<svg id="visual" viewBox="0 0 960 960" width="960" height="960" xmlns="http://www.w3.org/2000/svg" xmlns:xlink="http://www.w3.org/1999/xlink" version="1.1"><path d="M0 203L87 183L175 135L262 241L349 135L436 231L524 174L611 164L698 87L785 155L873 107L960 174L960 0L873 0L785 0L698 0L611 0L524 0L436 0L349 0L262 0L175 0L87 0L0 0Z" fill="#00cc8e"></path><path d="M0 347L87 327L175 481L262 577L349 462L436 414L524 308L611 375L698 500L785 279L873 462L960 414L960 172L873 105L785 153L698 85L611 162L524 172L436 229L349 133L262 239L175 133L87 181L0 201Z" fill="#03c092"></path><path d="M0 644L87 759L175 759L262 711L349 683L436 702L524 663L611 769L698 731L785 683L873 615L960 673L960 412L873 460L785 277L698 498L611 373L524 306L436 412L349 460L262 575L175 479L87 325L0 345Z" fill="#1bb394"></path><path d="M0 836L87 865L175 827L262 875L349 875L436 807L524 798L611 903L698 875L785 798L873 798L960 865L960 671L873 613L785 681L698 729L611 767L524 661L436 700L349 681L262 709L175 757L87 757L0 642Z" fill="#2fa793"></path><path d="M0 961L87 961L175 961L262 961L349 961L436 961L524 961L611 961L698 961L785 961L873 961L960 961L960 863L873 796L785 796L698 873L611 901L524 796L436 805L349 873L262 873L175 825L87 863L0 834Z" fill="#3f9a8f"></path></svg>