<svg id="visual" viewBox="0 0 960 540" width="960" height="540" xmlns="http://www.w3.org/2000/svg" xmlns:xlink="http://www.w3.org/1999/xlink" version="1.1"><rect x="0" y="0" width="960" height="540" fill="#d0ddcd"></rect><path d="M0 170L22.8 172.8C45.7 175.7 91.3 181.3 137 187.3C182.7 193.3 228.3 199.7 274 205.5C319.7 211.3 365.3 216.7 411.2 205.3C457 194 503 166 548.8 164C594.7 162 640.3 186 686 197.5C731.7 209 777.3 208 823 207.8C868.7 207.7 914.3 208.3 937.2 208.7L960 209L960 0L937.2 0C914.3 0 868.7 0 823 0C777.3 0 731.7 0 686 0C640.3 0 594.7 0 548.8 0C503 0 457 0 411.2 0C365.3 0 319.7 0 274 0C228.3 0 182.7 0 137 0C91.3 0 45.7 0 22.8 0L0 0Z" fill="#a6eea1"></path><path d="M0 122L22.8 130.2C45.7 138.3 91.3 154.7 137 158.7C182.7 162.7 228.3 154.3 274 145.2C319.7 136 365.3 126 411.2 121.3C457 116.7 503 117.3 548.8 120.2C594.7 123 640.3 128 686 135.3C731.7 142.7 777.3 152.3 823 148C868.7 143.7 914.3 125.3 937.2 116.2L960 107L960 0L937.2 0C914.3 0 868.7 0 823 0C777.3 0 731.7 0 686 0C640.3 0 594.7 0 548.8 0C503 0 457 0 411.2 0C365.3 0 319.7 0 274 0C228.3 0 182.7 0 137 0C91.3 0 45.7 0 22.8 0L0 0Z" fill="#92d38f"></path><path d="M0 87L22.8 89.5C45.7 92 91.3 97 137 104C182.7 111 228.3 120 274 118C319.7 116 365.3 103 411.2 95C457 87 503 84 548.8 86.3C594.7 88.7 640.3 96.3 686 107C731.7 117.7 777.3 131.3 823 131C868.7 130.7 914.3 116.3 937.2 109.2L960 102L960 0L937.2 0C914.3 0 868.7 0 823 0C777.3 0 731.7 0 686 0C640.3 0 594.7 0 548.8 0C503 0 457 0 411.2 0C365.3 0 319.7 0 274 0C228.3 0 182.7 0 137 0C91.3 0 45.7 0 22.8 0L0 0Z" fill="#7eb97e"></path><path d="M0 103L22.8 94.8C45.7 86.7 91.3 70.3 137 64C182.7 57.7 228.3 61.3 274 61.2C319.7 61 365.3 57 411.2 55C457 53 503 53 548.8 60.3C594.7 67.7 640.3 82.3 686 88.7C731.7 95 777.3 93 823 94.2C868.7 95.3 914.3 99.7 937.2 101.8L960 104L960 0L937.2 0C914.3 0 868.7 0 823 0C777.3 0 731.7 0 686 0C640.3 0 594.7 0 548.8 0C503 0 457 0 411.2 0C365.3 0 319.7 0 274 0C228.3 0 182.7 0 137 0C91.3 0 45.7 0 22.8 0L0 0Z" fill="#6ba06d"></path><path d="M0 27L22.8 26.7C45.7 26.3 91.3 25.7 137 32C182.7 38.3 228.3 51.7 274 54.8C319.7 58 365.3 51 411.2 47C457 43 503 42 548.8 45.5C594.7 49 640.3 57 686 60C731.7 63 777.3 61 823 58.2C868.7 55.3 914.3 51.7 937.2 49.8L960 48L960 0L937.2 0C914.3 0 868.7 0 823 0C777.3 0 731.7 0 686 0C640.3 0 594.7 0 548.8 0C503 0 457 0 411.2 0C365.3 0 319.7 0 274 0C228.3 0 182.7 0 137 0C91.3 0 45.7 0 22.8 0L0 0Z" fill="#59875c"></path></svg>