<svg id="visual" viewBox="0 0 900 450" width="900" height="450" xmlns="http://www.w3.org/2000/svg" xmlns:xlink="http://www.w3.org/1999/xlink" version="1.1"><rect x="0" y="0" width="900" height="450" fill="#ffffff"></rect><defs><linearGradient id="grad1_0" x1="50%" y1="100%" x2="100%" y2="0%"><stop offset="10%" stop-color="#ffffff" stop-opacity="1"></stop><stop offset="90%" stop-color="#ffffff" stop-opacity="1"></stop></linearGradient></defs><defs><linearGradient id="grad2_0" x1="0%" y1="100%" x2="50%" y2="0%"><stop offset="10%" stop-color="#ffffff" stop-opacity="1"></stop><stop offset="90%" stop-color="#ffffff" stop-opacity="1"></stop></linearGradient></defs><g transform="translate(900, 450)"><path d="M-382.5 0C-364.8 -30 -347.1 -60 -339 -90.8C-331 -121.7 -332.6 -153.5 -325.6 -188C-318.6 -222.5 -303 -259.7 -270.5 -270.5C-238 -281.2 -188.6 -265.4 -157 -271.9C-125.4 -278.4 -111.5 -307.2 -88.3 -329.4C-65 -351.5 -32.5 -367 0 -382.5L0 0Z" fill="#c6ffbc"></path></g><g transform="translate(0, 0)"><path d="M382.5 0C382.5 34.3 382.5 68.6 369.5 99C356.5 129.3 330.4 155.7 302.2 174.5C274 193.3 243.6 204.5 219.9 219.9C196.2 235.4 179.1 255.1 159.5 276.3C139.9 297.5 117.6 320.1 90.6 338.1C63.6 356 31.8 369.3 0 382.5L0 0Z" fill="#c6ffbc"></path></g></svg>