<svg id="visual" viewBox="0 0 960 960" width="960" height="960" xmlns="http://www.w3.org/2000/svg" xmlns:xlink="http://www.w3.org/1999/xlink" version="1.1"><rect x="0" y="0" width="960" height="960" fill="#ffffff"></rect><defs><linearGradient id="grad1_0" x1="0%" y1="0%" x2="100%" y2="100%"><stop offset="30%" stop-color="#ffffff" stop-opacity="1"></stop><stop offset="70%" stop-color="#ffffff" stop-opacity="1"></stop></linearGradient></defs><defs><linearGradient id="grad2_0" x1="0%" y1="0%" x2="100%" y2="100%"><stop offset="30%" stop-color="#ffffff" stop-opacity="1"></stop><stop offset="70%" stop-color="#ffffff" stop-opacity="1"></stop></linearGradient></defs><g transform="translate(960, 0)"><path d="M0 678.8C-42.4 611.8 -84.8 544.8 -143.6 536.1C-202.5 527.4 -277.7 577.1 -327 566.4C-376.3 555.7 -399.5 484.5 -437.7 437.7C-475.9 390.9 -528.9 368.4 -569.8 329C-610.8 289.6 -639.6 233.3 -655.7 175.7C-671.8 118 -675.3 59 -678.8 0L0 0Z" fill="#c6ffbc"></path></g><g transform="translate(0, 960)"><path d="M0 -678.8C62.1 -680.9 124.2 -683 175.7 -655.7C227.1 -628.4 267.9 -571.7 303.5 -525.7C339.1 -479.7 369.4 -444.4 410.8 -410.8C452.3 -377.2 504.8 -345.4 518.7 -299.5C532.7 -253.6 508.1 -193.8 528.4 -141.6C548.6 -89.3 613.7 -44.7 678.8 0L0 0Z" fill="#c6ffbc"></path></g></svg>