<svg id="visual" viewBox="0 0 960 960" width="960" height="960" xmlns="http://www.w3.org/2000/svg" xmlns:xlink="http://www.w3.org/1999/xlink" version="1.1"><rect x="0" y="0" width="960" height="960" fill="#ffffff"></rect><defs><linearGradient id="grad1_0" x1="0%" y1="100%" x2="100%" y2="0%"><stop offset="30%" stop-color="#ffffff" stop-opacity="1"></stop><stop offset="70%" stop-color="#ffffff" stop-opacity="1"></stop></linearGradient></defs><defs><linearGradient id="grad2_0" x1="0%" y1="100%" x2="100%" y2="0%"><stop offset="30%" stop-color="#ffffff" stop-opacity="1"></stop><stop offset="70%" stop-color="#ffffff" stop-opacity="1"></stop></linearGradient></defs><g transform="translate(960, 960)"><path d="M-577 0C-550.5 -44.5 -524.1 -89 -506.1 -135.6C-488.2 -182.3 -478.8 -231.1 -446 -257.5C-413.2 -283.9 -357 -287.7 -333 -333C-309.1 -378.4 -317.3 -465.2 -288.5 -499.7C-259.7 -534.2 -193.8 -516.5 -139.5 -520.6C-85.2 -524.8 -42.6 -550.9 0 -577L0 0Z" fill="#c6ffbc"></path></g><g transform="translate(0, 0)"><path d="M577 0C552.7 47.8 528.4 95.6 498.4 133.6C468.4 171.5 432.7 199.6 414.8 239.5C396.9 279.4 396.8 331.1 380.4 380.4C364.1 429.7 331.5 476.5 288.5 499.7C245.5 522.8 192.2 522.3 142.4 531.3C92.5 540.2 46.3 558.6 0 577L0 0Z" fill="#c6ffbc"></path></g></svg>