<svg id="visual" viewBox="0 0 960 960" width="960" height="960" xmlns="http://www.w3.org/2000/svg" xmlns:xlink="http://www.w3.org/1999/xlink" version="1.1"><rect x="0" y="0" width="960" height="960" fill="#ffffff"></rect><defs><linearGradient id="grad1_0" x1="0%" y1="100%" x2="100%" y2="0%"><stop offset="30%" stop-color="#ffffff" stop-opacity="1"></stop><stop offset="70%" stop-color="#ffffff" stop-opacity="1"></stop></linearGradient></defs><defs><linearGradient id="grad2_0" x1="0%" y1="100%" x2="100%" y2="0%"><stop offset="30%" stop-color="#ffffff" stop-opacity="1"></stop><stop offset="70%" stop-color="#ffffff" stop-opacity="1"></stop></linearGradient></defs><g transform="translate(960, 960)"><path d="M-505 0C-490 -39.3 -475.1 -78.6 -480.1 -128.6C-485.1 -178.6 -510 -239.3 -499.7 -288.5C-489.4 -337.7 -443.8 -375.5 -392.4 -392.4C-341 -409.4 -283.8 -405.4 -240 -415.7C-196.2 -426 -165.9 -450.5 -128.1 -478.1C-90.4 -505.7 -45.2 -536.4 0 -567L0 0Z" fill="#c6ffbc"></path></g><g transform="translate(0, 0)"><path d="M496 0C477.1 39 458.3 78 455.9 122.2C453.6 166.3 467.8 215.7 465.9 269C464.1 322.3 446.2 379.6 408 408C369.8 436.4 311.3 435.9 266.5 461.6C221.7 487.3 190.7 539.3 148.6 554.4C106.4 569.6 53.2 547.8 0 526L0 0Z" fill="#c6ffbc"></path></g></svg>