<svg id="visual" viewBox="0 0 960 960" width="960" height="960" xmlns="http://www.w3.org/2000/svg" xmlns:xlink="http://www.w3.org/1999/xlink" version="1.1"><rect x="0" y="0" width="960" height="960" fill="#ffffff"></rect><defs><linearGradient id="grad1_0" x1="0%" y1="0%" x2="100%" y2="100%"><stop offset="30%" stop-color="#ffffff" stop-opacity="1"></stop><stop offset="70%" stop-color="#ffffff" stop-opacity="1"></stop></linearGradient></defs><defs><linearGradient id="grad2_0" x1="0%" y1="0%" x2="100%" y2="100%"><stop offset="30%" stop-color="#ffffff" stop-opacity="1"></stop><stop offset="70%" stop-color="#ffffff" stop-opacity="1"></stop></linearGradient></defs><g transform="translate(960, 0)"><path d="M0 577C-48.9 570.7 -97.9 564.3 -148 552.5C-198.2 540.7 -249.7 523.5 -281 486.7C-312.3 449.9 -323.5 393.6 -361.3 361.3C-399.2 329 -463.6 320.8 -499.7 288.5C-535.8 256.2 -543.4 199.9 -551.5 147.8C-559.7 95.7 -568.3 47.8 -577 0L0 0Z" fill="#c6ffbc"></path></g><g transform="translate(0, 960)"><path d="M0 -577C49.9 -568 99.8 -559 143.1 -534.2C186.5 -509.3 223.3 -468.7 247 -427.8C270.7 -386.9 281.3 -345.8 328.1 -328.1C374.9 -310.3 457.8 -315.9 499.7 -288.5C541.6 -261.1 542.6 -200.6 548.6 -147C554.7 -93.4 565.9 -46.7 577 0L0 0Z" fill="#c6ffbc"></path></g></svg>