<svg id="visual" viewBox="0 0 960 960" width="960" height="960" xmlns="http://www.w3.org/2000/svg" xmlns:xlink="http://www.w3.org/1999/xlink" version="1.1"><rect x="0" y="0" width="960" height="960" fill="#ffffff"></rect><defs><linearGradient id="grad1_0" x1="0%" y1="0%" x2="100%" y2="100%"><stop offset="30%" stop-color="#ffffff" stop-opacity="1"></stop><stop offset="70%" stop-color="#ffffff" stop-opacity="1"></stop></linearGradient></defs><defs><linearGradient id="grad2_0" x1="0%" y1="0%" x2="100%" y2="100%"><stop offset="30%" stop-color="#ffffff" stop-opacity="1"></stop><stop offset="70%" stop-color="#ffffff" stop-opacity="1"></stop></linearGradient></defs><g transform="translate(960, 0)"><path d="M0 441.2C-34.3 440.1 -68.6 438.9 -96.1 421.2C-123.6 403.4 -144.3 369.1 -168.3 349.6C-192.4 330.1 -219.8 325.4 -253.8 318.2C-287.7 311.1 -328.3 301.5 -345 275.1C-361.6 248.7 -354.4 205.6 -358.6 172.7C-362.7 139.7 -378.2 117 -393.9 89.9C-409.5 62.8 -425.4 31.4 -441.2 0L0 0Z" fill="#c6ffbc"></path></g><g transform="translate(0, 960)"><path d="M0 -441.2C28.5 -415.6 56.9 -389.9 86.3 -378.3C115.8 -366.7 146.1 -369.2 174 -361.3C201.9 -353.4 227.2 -335.2 255 -319.8C282.8 -304.4 313 -291.9 340.9 -271.8C368.8 -251.8 394.3 -224.2 397.5 -191.4C400.7 -158.7 381.5 -120.7 385.1 -87.9C388.6 -55.1 414.9 -27.6 441.2 0L0 0Z" fill="#c6ffbc"></path></g></svg>