<svg id="visual" viewBox="0 0 960 540" width="960" height="540" xmlns="http://www.w3.org/2000/svg" xmlns:xlink="http://www.w3.org/1999/xlink" version="1.1"><rect x="0" y="0" width="960" height="540" fill="#ffffff"></rect><defs><linearGradient id="grad1_0" x1="43.8%" y1="100%" x2="100%" y2="0%"><stop offset="14.444444444444446%" stop-color="#ffffff" stop-opacity="1"></stop><stop offset="85.55555555555554%" stop-color="#ffffff" stop-opacity="1"></stop></linearGradient></defs><defs><linearGradient id="grad2_0" x1="0%" y1="100%" x2="56.3%" y2="0%"><stop offset="14.444444444444446%" stop-color="#ffffff" stop-opacity="1"></stop><stop offset="85.55555555555554%" stop-color="#ffffff" stop-opacity="1"></stop></linearGradient></defs><g transform="translate(960, 540)"><path d="M-459 0C-463.1 -44.7 -467.3 -89.3 -441.4 -118.3C-415.6 -147.2 -359.7 -160.4 -340.3 -196.5C-321 -232.6 -338.3 -291.6 -320.3 -320.3C-302.4 -349 -249.2 -347.5 -211.5 -366.3C-173.8 -385.2 -151.5 -424.5 -118.8 -443.4C-86.1 -462.2 -43.1 -460.6 0 -459L0 0Z" fill="#c6ffbc"></path></g><g transform="translate(0, 0)"><path d="M459 0C431.8 36 404.6 71.9 382.5 102.5C360.4 133.1 343.5 158.3 336.9 194.5C330.2 230.7 333.9 277.9 318.9 318.9C304 359.9 270.4 394.8 229.5 397.5C188.6 400.2 140.2 370.8 100.7 375.7C61.2 380.6 30.6 419.8 0 459L0 0Z" fill="#c6ffbc"></path></g></svg>